<?xml version="1.0" encoding="utf-8" standalone="no"?>
<!DOCTYPE svg PUBLIC "-//W3C//DTD SVG 1.1//EN"
  "http://www.w3.org/Graphics/SVG/1.1/DTD/svg11.dtd">
<!-- Created with matplotlib (https://matplotlib.org/) -->
<svg height="1008pt" version="1.1" viewBox="0 0 1008 1008" width="1008pt" xmlns="http://www.w3.org/2000/svg" xmlns:xlink="http://www.w3.org/1999/xlink">
 <defs>
  <style type="text/css">
*{stroke-linecap:butt;stroke-linejoin:round;}
  </style>
 </defs>
 <g id="figure_1">
  <g id="patch_1">
   <path d="M 0 1008 
L 1008 1008 
L 1008 0 
L 0 0 
z
" style="fill:#ffffff;"/>
  </g>
  <g id="axes_1">
   <g id="patch_2">
    <path d="M 126 897.12 
L 907.2 897.12 
L 907.2 120.96 
L 126 120.96 
z
" style="fill:#ffffff;"/>
   </g>
   <g id="PolyCollection_1">
    <defs>
     <path d="M 161.509091 -879.355248 
L 161.509091 -879.355248 
L 240.418182 -529.143957 
L 319.327273 -464.099141 
L 398.236364 -373.295618 
L 477.145455 -307.865843 
L 556.054545 -263.888539 
L 634.963636 -208.493215 
L 713.872727 -174.205206 
L 792.781818 -157.315084 
L 871.690909 -156.357622 
L 871.690909 -181.100596 
L 871.690909 -181.100596 
L 792.781818 -186.486104 
L 713.872727 -206.068062 
L 634.963636 -246.980844 
L 556.054545 -308.68651 
L 477.145455 -354.303662 
L 398.236364 -428.114283 
L 319.327273 -525.953136 
L 240.418182 -588.255647 
L 161.509091 -879.355248 
z
" id="m1b29b0c5e4" style="stroke:#539caf;stroke-opacity:0.4;"/>
    </defs>
    <g clip-path="url(#p9e0ed6dd3a)">
     <use style="fill:#539caf;fill-opacity:0.4;stroke:#539caf;stroke-opacity:0.4;" x="0" xlink:href="#m1b29b0c5e4" y="1008"/>
    </g>
   </g>
   <g id="PolyCollection_2">
    <defs>
     <path d="M 161.509091 -879.355248 
L 161.509091 -879.355248 
L 240.418182 -695.741817 
L 319.327273 -681.338315 
L 398.236364 -656.183391 
L 477.145455 -634.147225 
L 556.054545 -616.856215 
L 634.963636 -575.216777 
L 713.872727 -535.556951 
L 792.781818 -529.569289 
L 871.690909 -477.33263 
L 871.690909 -529.430935 
L 871.690909 -529.430935 
L 792.781818 -572.46081 
L 713.872727 -575.072752 
L 634.963636 -623.055698 
L 556.054545 -658.080814 
L 477.145455 -674.456339 
L 398.236364 -697.796807 
L 319.327273 -728.996734 
L 240.418182 -745.332242 
L 161.509091 -879.355248 
z
" id="mb1b6fca6f1" style="stroke:#b65332;stroke-opacity:0.4;"/>
    </defs>
    <g clip-path="url(#p9e0ed6dd3a)">
     <use style="fill:#b65332;fill-opacity:0.4;stroke:#b65332;stroke-opacity:0.4;" x="0" xlink:href="#mb1b6fca6f1" y="1008"/>
    </g>
   </g>
   <g id="PolyCollection_3">
    <defs>
     <path d="M 161.509091 -879.355248 
L 161.509091 -879.355248 
L 240.418182 -871.710925 
L 319.327273 -862.956312 
L 398.236364 -841.68184 
L 477.145455 -819.6424 
L 556.054545 -801.839267 
L 634.963636 -787.513496 
L 713.872727 -754.537518 
L 792.781818 -688.527539 
L 871.690909 -614.793431 
L 871.690909 -657.399044 
L 871.690909 -657.399044 
L 792.781818 -738.640778 
L 713.872727 -804.369413 
L 634.963636 -832.871454 
L 556.054545 -844.161525 
L 477.145455 -857.097402 
L 398.236364 -870.920141 
L 319.327273 -880.384678 
L 240.418182 -881.876402 
L 161.509091 -879.355248 
z
" id="m593c95bec3" style="stroke:#5be19a;stroke-opacity:0.4;"/>
    </defs>
    <g clip-path="url(#p9e0ed6dd3a)">
     <use style="fill:#5be19a;fill-opacity:0.4;stroke:#5be19a;stroke-opacity:0.4;" x="0" xlink:href="#m593c95bec3" y="1008"/>
    </g>
   </g>
   <g id="PolyCollection_4">
    <defs>
     <path d="M 161.509091 -879.355248 
L 161.509091 -879.355248 
L 240.418182 -212.988211 
L 319.327273 -177.20753 
L 398.236364 -149.622702 
L 477.145455 -143.327158 
L 556.054545 -123.585365 
L 634.963636 -121.566757 
L 713.872727 -127.956655 
L 792.781818 -111.419845 
L 871.690909 -101.346724 
L 871.690909 -135.938028 
L 871.690909 -135.938028 
L 792.781818 -140.039682 
L 713.872727 -163.460458 
L 634.963636 -136.245168 
L 556.054545 -143.455163 
L 477.145455 -167.417397 
L 398.236364 -172.892942 
L 319.327273 -200.565144 
L 240.418182 -241.144066 
L 161.509091 -879.355248 
z
" id="md605c8dde1" style="stroke:#ffff80;stroke-opacity:0.4;"/>
    </defs>
    <g clip-path="url(#p9e0ed6dd3a)">
     <use style="fill:#ffff80;fill-opacity:0.4;stroke:#ffff80;stroke-opacity:0.4;" x="0" xlink:href="#md605c8dde1" y="1008"/>
    </g>
   </g>
   <g id="PolyCollection_5">
    <defs>
     <path d="M 161.509091 -879.355248 
L 161.509091 -879.355248 
L 240.418182 -342.231646 
L 319.327273 -290.694425 
L 398.236364 -270.866452 
L 477.145455 -232.683239 
L 556.054545 -213.817952 
L 634.963636 -197.759227 
L 713.872727 -180.675959 
L 792.781818 -103.2002 
L 871.690909 -110.88 
L 871.690909 -110.88 
L 871.690909 -110.88 
L 792.781818 -149.609305 
L 713.872727 -237.53636 
L 634.963636 -226.758969 
L 556.054545 -245.187373 
L 477.145455 -273.900524 
L 398.236364 -310.552161 
L 319.327273 -326.586367 
L 240.418182 -377.512513 
L 161.509091 -879.355248 
z
" id="mc1ae7906a6" style="stroke:#87888a;stroke-opacity:0.4;"/>
    </defs>
    <g clip-path="url(#p9e0ed6dd3a)">
     <use style="fill:#87888a;fill-opacity:0.4;stroke:#87888a;stroke-opacity:0.4;" x="0" xlink:href="#mc1ae7906a6" y="1008"/>
    </g>
   </g>
   <g id="matplotlib.axis_1">
    <g id="xtick_1">
     <g id="line2d_1">
      <defs>
       <path d="M 0 0 
L 0 3.5 
" id="m68debb8674" style="stroke:#000000;stroke-width:0.8;"/>
      </defs>
      <g>
       <use style="stroke:#000000;stroke-width:0.8;" x="161.509091" xlink:href="#m68debb8674" y="897.12"/>
      </g>
     </g>
     <g id="text_1">
      <!-- 0 -->
      <defs>
       <path d="M 31.78125 66.40625 
Q 24.171875 66.40625 20.328125 58.90625 
Q 16.5 51.421875 16.5 36.375 
Q 16.5 21.390625 20.328125 13.890625 
Q 24.171875 6.390625 31.78125 6.390625 
Q 39.453125 6.390625 43.28125 13.890625 
Q 47.125 21.390625 47.125 36.375 
Q 47.125 51.421875 43.28125 58.90625 
Q 39.453125 66.40625 31.78125 66.40625 
z
M 31.78125 74.21875 
Q 44.046875 74.21875 50.515625 64.515625 
Q 56.984375 54.828125 56.984375 36.375 
Q 56.984375 17.96875 50.515625 8.265625 
Q 44.046875 -1.421875 31.78125 -1.421875 
Q 19.53125 -1.421875 13.0625 8.265625 
Q 6.59375 17.96875 6.59375 36.375 
Q 6.59375 54.828125 13.0625 64.515625 
Q 19.53125 74.21875 31.78125 74.21875 
z
" id="DejaVuSans-48"/>
      </defs>
      <g transform="translate(153.555966 923.116094)scale(0.25 -0.25)">
       <use xlink:href="#DejaVuSans-48"/>
      </g>
     </g>
    </g>
    <g id="xtick_2">
     <g id="line2d_2">
      <g>
       <use style="stroke:#000000;stroke-width:0.8;" x="240.418182" xlink:href="#m68debb8674" y="897.12"/>
      </g>
     </g>
     <g id="text_2">
      <!-- 10 -->
      <defs>
       <path d="M 12.40625 8.296875 
L 28.515625 8.296875 
L 28.515625 63.921875 
L 10.984375 60.40625 
L 10.984375 69.390625 
L 28.421875 72.90625 
L 38.28125 72.90625 
L 38.28125 8.296875 
L 54.390625 8.296875 
L 54.390625 0 
L 12.40625 0 
z
" id="DejaVuSans-49"/>
      </defs>
      <g transform="translate(224.511932 923.116094)scale(0.25 -0.25)">
       <use xlink:href="#DejaVuSans-49"/>
       <use x="63.623047" xlink:href="#DejaVuSans-48"/>
      </g>
     </g>
    </g>
    <g id="xtick_3">
     <g id="line2d_3">
      <g>
       <use style="stroke:#000000;stroke-width:0.8;" x="319.327273" xlink:href="#m68debb8674" y="897.12"/>
      </g>
     </g>
     <g id="text_3">
      <!-- 20 -->
      <defs>
       <path d="M 19.1875 8.296875 
L 53.609375 8.296875 
L 53.609375 0 
L 7.328125 0 
L 7.328125 8.296875 
Q 12.9375 14.109375 22.625 23.890625 
Q 32.328125 33.6875 34.8125 36.53125 
Q 39.546875 41.84375 41.421875 45.53125 
Q 43.3125 49.21875 43.3125 52.78125 
Q 43.3125 58.59375 39.234375 62.25 
Q 35.15625 65.921875 28.609375 65.921875 
Q 23.96875 65.921875 18.8125 64.3125 
Q 13.671875 62.703125 7.8125 59.421875 
L 7.8125 69.390625 
Q 13.765625 71.78125 18.9375 73 
Q 24.125 74.21875 28.421875 74.21875 
Q 39.75 74.21875 46.484375 68.546875 
Q 53.21875 62.890625 53.21875 53.421875 
Q 53.21875 48.921875 51.53125 44.890625 
Q 49.859375 40.875 45.40625 35.40625 
Q 44.1875 33.984375 37.640625 27.21875 
Q 31.109375 20.453125 19.1875 8.296875 
z
" id="DejaVuSans-50"/>
      </defs>
      <g transform="translate(303.421023 923.116094)scale(0.25 -0.25)">
       <use xlink:href="#DejaVuSans-50"/>
       <use x="63.623047" xlink:href="#DejaVuSans-48"/>
      </g>
     </g>
    </g>
    <g id="xtick_4">
     <g id="line2d_4">
      <g>
       <use style="stroke:#000000;stroke-width:0.8;" x="398.236364" xlink:href="#m68debb8674" y="897.12"/>
      </g>
     </g>
     <g id="text_4">
      <!-- 30 -->
      <defs>
       <path d="M 40.578125 39.3125 
Q 47.65625 37.796875 51.625 33 
Q 55.609375 28.21875 55.609375 21.1875 
Q 55.609375 10.40625 48.1875 4.484375 
Q 40.765625 -1.421875 27.09375 -1.421875 
Q 22.515625 -1.421875 17.65625 -0.515625 
Q 12.796875 0.390625 7.625 2.203125 
L 7.625 11.71875 
Q 11.71875 9.328125 16.59375 8.109375 
Q 21.484375 6.890625 26.8125 6.890625 
Q 36.078125 6.890625 40.9375 10.546875 
Q 45.796875 14.203125 45.796875 21.1875 
Q 45.796875 27.640625 41.28125 31.265625 
Q 36.765625 34.90625 28.71875 34.90625 
L 20.21875 34.90625 
L 20.21875 43.015625 
L 29.109375 43.015625 
Q 36.375 43.015625 40.234375 45.921875 
Q 44.09375 48.828125 44.09375 54.296875 
Q 44.09375 59.90625 40.109375 62.90625 
Q 36.140625 65.921875 28.71875 65.921875 
Q 24.65625 65.921875 20.015625 65.03125 
Q 15.375 64.15625 9.8125 62.3125 
L 9.8125 71.09375 
Q 15.4375 72.65625 20.34375 73.4375 
Q 25.25 74.21875 29.59375 74.21875 
Q 40.828125 74.21875 47.359375 69.109375 
Q 53.90625 64.015625 53.90625 55.328125 
Q 53.90625 49.265625 50.4375 45.09375 
Q 46.96875 40.921875 40.578125 39.3125 
z
" id="DejaVuSans-51"/>
      </defs>
      <g transform="translate(382.330114 923.116094)scale(0.25 -0.25)">
       <use xlink:href="#DejaVuSans-51"/>
       <use x="63.623047" xlink:href="#DejaVuSans-48"/>
      </g>
     </g>
    </g>
    <g id="xtick_5">
     <g id="line2d_5">
      <g>
       <use style="stroke:#000000;stroke-width:0.8;" x="477.145455" xlink:href="#m68debb8674" y="897.12"/>
      </g>
     </g>
     <g id="text_5">
      <!-- 40 -->
      <defs>
       <path d="M 37.796875 64.3125 
L 12.890625 25.390625 
L 37.796875 25.390625 
z
M 35.203125 72.90625 
L 47.609375 72.90625 
L 47.609375 25.390625 
L 58.015625 25.390625 
L 58.015625 17.1875 
L 47.609375 17.1875 
L 47.609375 0 
L 37.796875 0 
L 37.796875 17.1875 
L 4.890625 17.1875 
L 4.890625 26.703125 
z
" id="DejaVuSans-52"/>
      </defs>
      <g transform="translate(461.239205 923.116094)scale(0.25 -0.25)">
       <use xlink:href="#DejaVuSans-52"/>
       <use x="63.623047" xlink:href="#DejaVuSans-48"/>
      </g>
     </g>
    </g>
    <g id="xtick_6">
     <g id="line2d_6">
      <g>
       <use style="stroke:#000000;stroke-width:0.8;" x="556.054545" xlink:href="#m68debb8674" y="897.12"/>
      </g>
     </g>
     <g id="text_6">
      <!-- 50 -->
      <defs>
       <path d="M 10.796875 72.90625 
L 49.515625 72.90625 
L 49.515625 64.59375 
L 19.828125 64.59375 
L 19.828125 46.734375 
Q 21.96875 47.46875 24.109375 47.828125 
Q 26.265625 48.1875 28.421875 48.1875 
Q 40.625 48.1875 47.75 41.5 
Q 54.890625 34.8125 54.890625 23.390625 
Q 54.890625 11.625 47.5625 5.09375 
Q 40.234375 -1.421875 26.90625 -1.421875 
Q 22.3125 -1.421875 17.546875 -0.640625 
Q 12.796875 0.140625 7.71875 1.703125 
L 7.71875 11.625 
Q 12.109375 9.234375 16.796875 8.0625 
Q 21.484375 6.890625 26.703125 6.890625 
Q 35.15625 6.890625 40.078125 11.328125 
Q 45.015625 15.765625 45.015625 23.390625 
Q 45.015625 31 40.078125 35.4375 
Q 35.15625 39.890625 26.703125 39.890625 
Q 22.75 39.890625 18.8125 39.015625 
Q 14.890625 38.140625 10.796875 36.28125 
z
" id="DejaVuSans-53"/>
      </defs>
      <g transform="translate(540.148295 923.116094)scale(0.25 -0.25)">
       <use xlink:href="#DejaVuSans-53"/>
       <use x="63.623047" xlink:href="#DejaVuSans-48"/>
      </g>
     </g>
    </g>
    <g id="xtick_7">
     <g id="line2d_7">
      <g>
       <use style="stroke:#000000;stroke-width:0.8;" x="634.963636" xlink:href="#m68debb8674" y="897.12"/>
      </g>
     </g>
     <g id="text_7">
      <!-- 60 -->
      <defs>
       <path d="M 33.015625 40.375 
Q 26.375 40.375 22.484375 35.828125 
Q 18.609375 31.296875 18.609375 23.390625 
Q 18.609375 15.53125 22.484375 10.953125 
Q 26.375 6.390625 33.015625 6.390625 
Q 39.65625 6.390625 43.53125 10.953125 
Q 47.40625 15.53125 47.40625 23.390625 
Q 47.40625 31.296875 43.53125 35.828125 
Q 39.65625 40.375 33.015625 40.375 
z
M 52.59375 71.296875 
L 52.59375 62.3125 
Q 48.875 64.0625 45.09375 64.984375 
Q 41.3125 65.921875 37.59375 65.921875 
Q 27.828125 65.921875 22.671875 59.328125 
Q 17.53125 52.734375 16.796875 39.40625 
Q 19.671875 43.65625 24.015625 45.921875 
Q 28.375 48.1875 33.59375 48.1875 
Q 44.578125 48.1875 50.953125 41.515625 
Q 57.328125 34.859375 57.328125 23.390625 
Q 57.328125 12.15625 50.6875 5.359375 
Q 44.046875 -1.421875 33.015625 -1.421875 
Q 20.359375 -1.421875 13.671875 8.265625 
Q 6.984375 17.96875 6.984375 36.375 
Q 6.984375 53.65625 15.1875 63.9375 
Q 23.390625 74.21875 37.203125 74.21875 
Q 40.921875 74.21875 44.703125 73.484375 
Q 48.484375 72.75 52.59375 71.296875 
z
" id="DejaVuSans-54"/>
      </defs>
      <g transform="translate(619.057386 923.116094)scale(0.25 -0.25)">
       <use xlink:href="#DejaVuSans-54"/>
       <use x="63.623047" xlink:href="#DejaVuSans-48"/>
      </g>
     </g>
    </g>
    <g id="xtick_8">
     <g id="line2d_8">
      <g>
       <use style="stroke:#000000;stroke-width:0.8;" x="713.872727" xlink:href="#m68debb8674" y="897.12"/>
      </g>
     </g>
     <g id="text_8">
      <!-- 70 -->
      <defs>
       <path d="M 8.203125 72.90625 
L 55.078125 72.90625 
L 55.078125 68.703125 
L 28.609375 0 
L 18.3125 0 
L 43.21875 64.59375 
L 8.203125 64.59375 
z
" id="DejaVuSans-55"/>
      </defs>
      <g transform="translate(697.966477 923.116094)scale(0.25 -0.25)">
       <use xlink:href="#DejaVuSans-55"/>
       <use x="63.623047" xlink:href="#DejaVuSans-48"/>
      </g>
     </g>
    </g>
    <g id="xtick_9">
     <g id="line2d_9">
      <g>
       <use style="stroke:#000000;stroke-width:0.8;" x="792.781818" xlink:href="#m68debb8674" y="897.12"/>
      </g>
     </g>
     <g id="text_9">
      <!-- 80 -->
      <defs>
       <path d="M 31.78125 34.625 
Q 24.75 34.625 20.71875 30.859375 
Q 16.703125 27.09375 16.703125 20.515625 
Q 16.703125 13.921875 20.71875 10.15625 
Q 24.75 6.390625 31.78125 6.390625 
Q 38.8125 6.390625 42.859375 10.171875 
Q 46.921875 13.96875 46.921875 20.515625 
Q 46.921875 27.09375 42.890625 30.859375 
Q 38.875 34.625 31.78125 34.625 
z
M 21.921875 38.8125 
Q 15.578125 40.375 12.03125 44.71875 
Q 8.5 49.078125 8.5 55.328125 
Q 8.5 64.0625 14.71875 69.140625 
Q 20.953125 74.21875 31.78125 74.21875 
Q 42.671875 74.21875 48.875 69.140625 
Q 55.078125 64.0625 55.078125 55.328125 
Q 55.078125 49.078125 51.53125 44.71875 
Q 48 40.375 41.703125 38.8125 
Q 48.828125 37.15625 52.796875 32.3125 
Q 56.78125 27.484375 56.78125 20.515625 
Q 56.78125 9.90625 50.3125 4.234375 
Q 43.84375 -1.421875 31.78125 -1.421875 
Q 19.734375 -1.421875 13.25 4.234375 
Q 6.78125 9.90625 6.78125 20.515625 
Q 6.78125 27.484375 10.78125 32.3125 
Q 14.796875 37.15625 21.921875 38.8125 
z
M 18.3125 54.390625 
Q 18.3125 48.734375 21.84375 45.5625 
Q 25.390625 42.390625 31.78125 42.390625 
Q 38.140625 42.390625 41.71875 45.5625 
Q 45.3125 48.734375 45.3125 54.390625 
Q 45.3125 60.0625 41.71875 63.234375 
Q 38.140625 66.40625 31.78125 66.40625 
Q 25.390625 66.40625 21.84375 63.234375 
Q 18.3125 60.0625 18.3125 54.390625 
z
" id="DejaVuSans-56"/>
      </defs>
      <g transform="translate(776.875568 923.116094)scale(0.25 -0.25)">
       <use xlink:href="#DejaVuSans-56"/>
       <use x="63.623047" xlink:href="#DejaVuSans-48"/>
      </g>
     </g>
    </g>
    <g id="xtick_10">
     <g id="line2d_10">
      <g>
       <use style="stroke:#000000;stroke-width:0.8;" x="871.690909" xlink:href="#m68debb8674" y="897.12"/>
      </g>
     </g>
     <g id="text_10">
      <!-- 90 -->
      <defs>
       <path d="M 10.984375 1.515625 
L 10.984375 10.5 
Q 14.703125 8.734375 18.5 7.8125 
Q 22.3125 6.890625 25.984375 6.890625 
Q 35.75 6.890625 40.890625 13.453125 
Q 46.046875 20.015625 46.78125 33.40625 
Q 43.953125 29.203125 39.59375 26.953125 
Q 35.25 24.703125 29.984375 24.703125 
Q 19.046875 24.703125 12.671875 31.3125 
Q 6.296875 37.9375 6.296875 49.421875 
Q 6.296875 60.640625 12.9375 67.421875 
Q 19.578125 74.21875 30.609375 74.21875 
Q 43.265625 74.21875 49.921875 64.515625 
Q 56.59375 54.828125 56.59375 36.375 
Q 56.59375 19.140625 48.40625 8.859375 
Q 40.234375 -1.421875 26.421875 -1.421875 
Q 22.703125 -1.421875 18.890625 -0.6875 
Q 15.09375 0.046875 10.984375 1.515625 
z
M 30.609375 32.421875 
Q 37.25 32.421875 41.125 36.953125 
Q 45.015625 41.5 45.015625 49.421875 
Q 45.015625 57.28125 41.125 61.84375 
Q 37.25 66.40625 30.609375 66.40625 
Q 23.96875 66.40625 20.09375 61.84375 
Q 16.21875 57.28125 16.21875 49.421875 
Q 16.21875 41.5 20.09375 36.953125 
Q 23.96875 32.421875 30.609375 32.421875 
z
" id="DejaVuSans-57"/>
      </defs>
      <g transform="translate(855.784659 923.116094)scale(0.25 -0.25)">
       <use xlink:href="#DejaVuSans-57"/>
       <use x="63.623047" xlink:href="#DejaVuSans-48"/>
      </g>
     </g>
    </g>
    <g id="text_11">
     <!-- percentage of missing -->
     <defs>
      <path d="M 18.109375 8.203125 
L 18.109375 -20.796875 
L 9.078125 -20.796875 
L 9.078125 54.6875 
L 18.109375 54.6875 
L 18.109375 46.390625 
Q 20.953125 51.265625 25.265625 53.625 
Q 29.59375 56 35.59375 56 
Q 45.5625 56 51.78125 48.09375 
Q 58.015625 40.1875 58.015625 27.296875 
Q 58.015625 14.40625 51.78125 6.484375 
Q 45.5625 -1.421875 35.59375 -1.421875 
Q 29.59375 -1.421875 25.265625 0.953125 
Q 20.953125 3.328125 18.109375 8.203125 
z
M 48.6875 27.296875 
Q 48.6875 37.203125 44.609375 42.84375 
Q 40.53125 48.484375 33.40625 48.484375 
Q 26.265625 48.484375 22.1875 42.84375 
Q 18.109375 37.203125 18.109375 27.296875 
Q 18.109375 17.390625 22.1875 11.75 
Q 26.265625 6.109375 33.40625 6.109375 
Q 40.53125 6.109375 44.609375 11.75 
Q 48.6875 17.390625 48.6875 27.296875 
z
" id="DejaVuSans-112"/>
      <path d="M 56.203125 29.59375 
L 56.203125 25.203125 
L 14.890625 25.203125 
Q 15.484375 15.921875 20.484375 11.0625 
Q 25.484375 6.203125 34.421875 6.203125 
Q 39.59375 6.203125 44.453125 7.46875 
Q 49.3125 8.734375 54.109375 11.28125 
L 54.109375 2.78125 
Q 49.265625 0.734375 44.1875 -0.34375 
Q 39.109375 -1.421875 33.890625 -1.421875 
Q 20.796875 -1.421875 13.15625 6.1875 
Q 5.515625 13.8125 5.515625 26.8125 
Q 5.515625 40.234375 12.765625 48.109375 
Q 20.015625 56 32.328125 56 
Q 43.359375 56 49.78125 48.890625 
Q 56.203125 41.796875 56.203125 29.59375 
z
M 47.21875 32.234375 
Q 47.125 39.59375 43.09375 43.984375 
Q 39.0625 48.390625 32.421875 48.390625 
Q 24.90625 48.390625 20.390625 44.140625 
Q 15.875 39.890625 15.1875 32.171875 
z
" id="DejaVuSans-101"/>
      <path d="M 41.109375 46.296875 
Q 39.59375 47.171875 37.8125 47.578125 
Q 36.03125 48 33.890625 48 
Q 26.265625 48 22.1875 43.046875 
Q 18.109375 38.09375 18.109375 28.8125 
L 18.109375 0 
L 9.078125 0 
L 9.078125 54.6875 
L 18.109375 54.6875 
L 18.109375 46.1875 
Q 20.953125 51.171875 25.484375 53.578125 
Q 30.03125 56 36.53125 56 
Q 37.453125 56 38.578125 55.875 
Q 39.703125 55.765625 41.0625 55.515625 
z
" id="DejaVuSans-114"/>
      <path d="M 48.78125 52.59375 
L 48.78125 44.1875 
Q 44.96875 46.296875 41.140625 47.34375 
Q 37.3125 48.390625 33.40625 48.390625 
Q 24.65625 48.390625 19.8125 42.84375 
Q 14.984375 37.3125 14.984375 27.296875 
Q 14.984375 17.28125 19.8125 11.734375 
Q 24.65625 6.203125 33.40625 6.203125 
Q 37.3125 6.203125 41.140625 7.25 
Q 44.96875 8.296875 48.78125 10.40625 
L 48.78125 2.09375 
Q 45.015625 0.34375 40.984375 -0.53125 
Q 36.96875 -1.421875 32.421875 -1.421875 
Q 20.0625 -1.421875 12.78125 6.34375 
Q 5.515625 14.109375 5.515625 27.296875 
Q 5.515625 40.671875 12.859375 48.328125 
Q 20.21875 56 33.015625 56 
Q 37.15625 56 41.109375 55.140625 
Q 45.0625 54.296875 48.78125 52.59375 
z
" id="DejaVuSans-99"/>
      <path d="M 54.890625 33.015625 
L 54.890625 0 
L 45.90625 0 
L 45.90625 32.71875 
Q 45.90625 40.484375 42.875 44.328125 
Q 39.84375 48.1875 33.796875 48.1875 
Q 26.515625 48.1875 22.3125 43.546875 
Q 18.109375 38.921875 18.109375 30.90625 
L 18.109375 0 
L 9.078125 0 
L 9.078125 54.6875 
L 18.109375 54.6875 
L 18.109375 46.1875 
Q 21.34375 51.125 25.703125 53.5625 
Q 30.078125 56 35.796875 56 
Q 45.21875 56 50.046875 50.171875 
Q 54.890625 44.34375 54.890625 33.015625 
z
" id="DejaVuSans-110"/>
      <path d="M 18.3125 70.21875 
L 18.3125 54.6875 
L 36.8125 54.6875 
L 36.8125 47.703125 
L 18.3125 47.703125 
L 18.3125 18.015625 
Q 18.3125 11.328125 20.140625 9.421875 
Q 21.96875 7.515625 27.59375 7.515625 
L 36.8125 7.515625 
L 36.8125 0 
L 27.59375 0 
Q 17.1875 0 13.234375 3.875 
Q 9.28125 7.765625 9.28125 18.015625 
L 9.28125 47.703125 
L 2.6875 47.703125 
L 2.6875 54.6875 
L 9.28125 54.6875 
L 9.28125 70.21875 
z
" id="DejaVuSans-116"/>
      <path d="M 34.28125 27.484375 
Q 23.390625 27.484375 19.1875 25 
Q 14.984375 22.515625 14.984375 16.5 
Q 14.984375 11.71875 18.140625 8.90625 
Q 21.296875 6.109375 26.703125 6.109375 
Q 34.1875 6.109375 38.703125 11.40625 
Q 43.21875 16.703125 43.21875 25.484375 
L 43.21875 27.484375 
z
M 52.203125 31.203125 
L 52.203125 0 
L 43.21875 0 
L 43.21875 8.296875 
Q 40.140625 3.328125 35.546875 0.953125 
Q 30.953125 -1.421875 24.3125 -1.421875 
Q 15.921875 -1.421875 10.953125 3.296875 
Q 6 8.015625 6 15.921875 
Q 6 25.140625 12.171875 29.828125 
Q 18.359375 34.515625 30.609375 34.515625 
L 43.21875 34.515625 
L 43.21875 35.40625 
Q 43.21875 41.609375 39.140625 45 
Q 35.0625 48.390625 27.6875 48.390625 
Q 23 48.390625 18.546875 47.265625 
Q 14.109375 46.140625 10.015625 43.890625 
L 10.015625 52.203125 
Q 14.9375 54.109375 19.578125 55.046875 
Q 24.21875 56 28.609375 56 
Q 40.484375 56 46.34375 49.84375 
Q 52.203125 43.703125 52.203125 31.203125 
z
" id="DejaVuSans-97"/>
      <path d="M 45.40625 27.984375 
Q 45.40625 37.75 41.375 43.109375 
Q 37.359375 48.484375 30.078125 48.484375 
Q 22.859375 48.484375 18.828125 43.109375 
Q 14.796875 37.75 14.796875 27.984375 
Q 14.796875 18.265625 18.828125 12.890625 
Q 22.859375 7.515625 30.078125 7.515625 
Q 37.359375 7.515625 41.375 12.890625 
Q 45.40625 18.265625 45.40625 27.984375 
z
M 54.390625 6.78125 
Q 54.390625 -7.171875 48.1875 -13.984375 
Q 42 -20.796875 29.203125 -20.796875 
Q 24.46875 -20.796875 20.265625 -20.09375 
Q 16.0625 -19.390625 12.109375 -17.921875 
L 12.109375 -9.1875 
Q 16.0625 -11.328125 19.921875 -12.34375 
Q 23.78125 -13.375 27.78125 -13.375 
Q 36.625 -13.375 41.015625 -8.765625 
Q 45.40625 -4.15625 45.40625 5.171875 
L 45.40625 9.625 
Q 42.625 4.78125 38.28125 2.390625 
Q 33.9375 0 27.875 0 
Q 17.828125 0 11.671875 7.65625 
Q 5.515625 15.328125 5.515625 27.984375 
Q 5.515625 40.671875 11.671875 48.328125 
Q 17.828125 56 27.875 56 
Q 33.9375 56 38.28125 53.609375 
Q 42.625 51.21875 45.40625 46.390625 
L 45.40625 54.6875 
L 54.390625 54.6875 
z
" id="DejaVuSans-103"/>
      <path id="DejaVuSans-32"/>
      <path d="M 30.609375 48.390625 
Q 23.390625 48.390625 19.1875 42.75 
Q 14.984375 37.109375 14.984375 27.296875 
Q 14.984375 17.484375 19.15625 11.84375 
Q 23.34375 6.203125 30.609375 6.203125 
Q 37.796875 6.203125 41.984375 11.859375 
Q 46.1875 17.53125 46.1875 27.296875 
Q 46.1875 37.015625 41.984375 42.703125 
Q 37.796875 48.390625 30.609375 48.390625 
z
M 30.609375 56 
Q 42.328125 56 49.015625 48.375 
Q 55.71875 40.765625 55.71875 27.296875 
Q 55.71875 13.875 49.015625 6.21875 
Q 42.328125 -1.421875 30.609375 -1.421875 
Q 18.84375 -1.421875 12.171875 6.21875 
Q 5.515625 13.875 5.515625 27.296875 
Q 5.515625 40.765625 12.171875 48.375 
Q 18.84375 56 30.609375 56 
z
" id="DejaVuSans-111"/>
      <path d="M 37.109375 75.984375 
L 37.109375 68.5 
L 28.515625 68.5 
Q 23.6875 68.5 21.796875 66.546875 
Q 19.921875 64.59375 19.921875 59.515625 
L 19.921875 54.6875 
L 34.71875 54.6875 
L 34.71875 47.703125 
L 19.921875 47.703125 
L 19.921875 0 
L 10.890625 0 
L 10.890625 47.703125 
L 2.296875 47.703125 
L 2.296875 54.6875 
L 10.890625 54.6875 
L 10.890625 58.5 
Q 10.890625 67.625 15.140625 71.796875 
Q 19.390625 75.984375 28.609375 75.984375 
z
" id="DejaVuSans-102"/>
      <path d="M 52 44.1875 
Q 55.375 50.25 60.0625 53.125 
Q 64.75 56 71.09375 56 
Q 79.640625 56 84.28125 50.015625 
Q 88.921875 44.046875 88.921875 33.015625 
L 88.921875 0 
L 79.890625 0 
L 79.890625 32.71875 
Q 79.890625 40.578125 77.09375 44.375 
Q 74.3125 48.1875 68.609375 48.1875 
Q 61.625 48.1875 57.5625 43.546875 
Q 53.515625 38.921875 53.515625 30.90625 
L 53.515625 0 
L 44.484375 0 
L 44.484375 32.71875 
Q 44.484375 40.625 41.703125 44.40625 
Q 38.921875 48.1875 33.109375 48.1875 
Q 26.21875 48.1875 22.15625 43.53125 
Q 18.109375 38.875 18.109375 30.90625 
L 18.109375 0 
L 9.078125 0 
L 9.078125 54.6875 
L 18.109375 54.6875 
L 18.109375 46.1875 
Q 21.1875 51.21875 25.484375 53.609375 
Q 29.78125 56 35.6875 56 
Q 41.65625 56 45.828125 52.96875 
Q 50 49.953125 52 44.1875 
z
" id="DejaVuSans-109"/>
      <path d="M 9.421875 54.6875 
L 18.40625 54.6875 
L 18.40625 0 
L 9.421875 0 
z
M 9.421875 75.984375 
L 18.40625 75.984375 
L 18.40625 64.59375 
L 9.421875 64.59375 
z
" id="DejaVuSans-105"/>
      <path d="M 44.28125 53.078125 
L 44.28125 44.578125 
Q 40.484375 46.53125 36.375 47.5 
Q 32.28125 48.484375 27.875 48.484375 
Q 21.1875 48.484375 17.84375 46.4375 
Q 14.5 44.390625 14.5 40.28125 
Q 14.5 37.15625 16.890625 35.375 
Q 19.28125 33.59375 26.515625 31.984375 
L 29.59375 31.296875 
Q 39.15625 29.25 43.1875 25.515625 
Q 47.21875 21.78125 47.21875 15.09375 
Q 47.21875 7.46875 41.1875 3.015625 
Q 35.15625 -1.421875 24.609375 -1.421875 
Q 20.21875 -1.421875 15.453125 -0.5625 
Q 10.6875 0.296875 5.421875 2 
L 5.421875 11.28125 
Q 10.40625 8.6875 15.234375 7.390625 
Q 20.0625 6.109375 24.8125 6.109375 
Q 31.15625 6.109375 34.5625 8.28125 
Q 37.984375 10.453125 37.984375 14.40625 
Q 37.984375 18.0625 35.515625 20.015625 
Q 33.0625 21.96875 24.703125 23.78125 
L 21.578125 24.515625 
Q 13.234375 26.265625 9.515625 29.90625 
Q 5.8125 33.546875 5.8125 39.890625 
Q 5.8125 47.609375 11.28125 51.796875 
Q 16.75 56 26.8125 56 
Q 31.78125 56 36.171875 55.265625 
Q 40.578125 54.546875 44.28125 53.078125 
z
" id="DejaVuSans-115"/>
     </defs>
     <g transform="translate(377.168359 951.311406)scale(0.25 -0.25)">
      <use xlink:href="#DejaVuSans-112"/>
      <use x="63.476562" xlink:href="#DejaVuSans-101"/>
      <use x="125" xlink:href="#DejaVuSans-114"/>
      <use x="166.082031" xlink:href="#DejaVuSans-99"/>
      <use x="221.0625" xlink:href="#DejaVuSans-101"/>
      <use x="282.585938" xlink:href="#DejaVuSans-110"/>
      <use x="345.964844" xlink:href="#DejaVuSans-116"/>
      <use x="385.173828" xlink:href="#DejaVuSans-97"/>
      <use x="446.453125" xlink:href="#DejaVuSans-103"/>
      <use x="509.929688" xlink:href="#DejaVuSans-101"/>
      <use x="571.453125" xlink:href="#DejaVuSans-32"/>
      <use x="603.240234" xlink:href="#DejaVuSans-111"/>
      <use x="664.421875" xlink:href="#DejaVuSans-102"/>
      <use x="699.626953" xlink:href="#DejaVuSans-32"/>
      <use x="731.414062" xlink:href="#DejaVuSans-109"/>
      <use x="828.826172" xlink:href="#DejaVuSans-105"/>
      <use x="856.609375" xlink:href="#DejaVuSans-115"/>
      <use x="908.708984" xlink:href="#DejaVuSans-115"/>
      <use x="960.808594" xlink:href="#DejaVuSans-105"/>
      <use x="988.591797" xlink:href="#DejaVuSans-110"/>
      <use x="1051.970703" xlink:href="#DejaVuSans-103"/>
     </g>
    </g>
   </g>
   <g id="matplotlib.axis_2">
    <g id="ytick_1">
     <g id="line2d_11">
      <defs>
       <path d="M 0 0 
L -3.5 0 
" id="mb2636bd9e0" style="stroke:#000000;stroke-width:0.8;"/>
      </defs>
      <g>
       <use style="stroke:#000000;stroke-width:0.8;" x="126" xlink:href="#mb2636bd9e0" y="897.12"/>
      </g>
     </g>
     <g id="text_12">
      <!-- 0.0 -->
      <defs>
       <path d="M 10.6875 12.40625 
L 21 12.40625 
L 21 0 
L 10.6875 0 
z
" id="DejaVuSans-46"/>
      </defs>
      <g transform="translate(79.242188 906.618047)scale(0.25 -0.25)">
       <use xlink:href="#DejaVuSans-48"/>
       <use x="63.623047" xlink:href="#DejaVuSans-46"/>
       <use x="95.410156" xlink:href="#DejaVuSans-48"/>
      </g>
     </g>
    </g>
    <g id="ytick_2">
     <g id="line2d_12">
      <g>
       <use style="stroke:#000000;stroke-width:0.8;" x="126" xlink:href="#mb2636bd9e0" y="743.42495"/>
      </g>
     </g>
     <g id="text_13">
      <!-- 0.2 -->
      <g transform="translate(79.242188 752.922997)scale(0.25 -0.25)">
       <use xlink:href="#DejaVuSans-48"/>
       <use x="63.623047" xlink:href="#DejaVuSans-46"/>
       <use x="95.410156" xlink:href="#DejaVuSans-50"/>
      </g>
     </g>
    </g>
    <g id="ytick_3">
     <g id="line2d_13">
      <g>
       <use style="stroke:#000000;stroke-width:0.8;" x="126" xlink:href="#mb2636bd9e0" y="589.729901"/>
      </g>
     </g>
     <g id="text_14">
      <!-- 0.4 -->
      <g transform="translate(79.242188 599.227948)scale(0.25 -0.25)">
       <use xlink:href="#DejaVuSans-48"/>
       <use x="63.623047" xlink:href="#DejaVuSans-46"/>
       <use x="95.410156" xlink:href="#DejaVuSans-52"/>
      </g>
     </g>
    </g>
    <g id="ytick_4">
     <g id="line2d_14">
      <g>
       <use style="stroke:#000000;stroke-width:0.8;" x="126" xlink:href="#mb2636bd9e0" y="436.034851"/>
      </g>
     </g>
     <g id="text_15">
      <!-- 0.6 -->
      <g transform="translate(79.242188 445.532898)scale(0.25 -0.25)">
       <use xlink:href="#DejaVuSans-48"/>
       <use x="63.623047" xlink:href="#DejaVuSans-46"/>
       <use x="95.410156" xlink:href="#DejaVuSans-54"/>
      </g>
     </g>
    </g>
    <g id="ytick_5">
     <g id="line2d_15">
      <g>
       <use style="stroke:#000000;stroke-width:0.8;" x="126" xlink:href="#mb2636bd9e0" y="282.339802"/>
      </g>
     </g>
     <g id="text_16">
      <!-- 0.8 -->
      <g transform="translate(79.242188 291.837849)scale(0.25 -0.25)">
       <use xlink:href="#DejaVuSans-48"/>
       <use x="63.623047" xlink:href="#DejaVuSans-46"/>
       <use x="95.410156" xlink:href="#DejaVuSans-56"/>
      </g>
     </g>
    </g>
    <g id="ytick_6">
     <g id="line2d_16">
      <g>
       <use style="stroke:#000000;stroke-width:0.8;" x="126" xlink:href="#mb2636bd9e0" y="128.644752"/>
      </g>
     </g>
     <g id="text_17">
      <!-- 1.0 -->
      <g transform="translate(79.242188 138.142799)scale(0.25 -0.25)">
       <use xlink:href="#DejaVuSans-49"/>
       <use x="63.623047" xlink:href="#DejaVuSans-46"/>
       <use x="95.410156" xlink:href="#DejaVuSans-48"/>
      </g>
     </g>
    </g>
    <g id="text_18">
     <!-- Effectiveness - Missing to Ideal -->
     <defs>
      <path d="M 9.8125 72.90625 
L 55.90625 72.90625 
L 55.90625 64.59375 
L 19.671875 64.59375 
L 19.671875 43.015625 
L 54.390625 43.015625 
L 54.390625 34.71875 
L 19.671875 34.71875 
L 19.671875 8.296875 
L 56.78125 8.296875 
L 56.78125 0 
L 9.8125 0 
z
" id="DejaVuSans-69"/>
      <path d="M 2.984375 54.6875 
L 12.5 54.6875 
L 29.59375 8.796875 
L 46.6875 54.6875 
L 56.203125 54.6875 
L 35.6875 0 
L 23.484375 0 
z
" id="DejaVuSans-118"/>
      <path d="M 4.890625 31.390625 
L 31.203125 31.390625 
L 31.203125 23.390625 
L 4.890625 23.390625 
z
" id="DejaVuSans-45"/>
      <path d="M 9.8125 72.90625 
L 24.515625 72.90625 
L 43.109375 23.296875 
L 61.8125 72.90625 
L 76.515625 72.90625 
L 76.515625 0 
L 66.890625 0 
L 66.890625 64.015625 
L 48.09375 14.015625 
L 38.1875 14.015625 
L 19.390625 64.015625 
L 19.390625 0 
L 9.8125 0 
z
" id="DejaVuSans-77"/>
      <path d="M 9.8125 72.90625 
L 19.671875 72.90625 
L 19.671875 0 
L 9.8125 0 
z
" id="DejaVuSans-73"/>
      <path d="M 45.40625 46.390625 
L 45.40625 75.984375 
L 54.390625 75.984375 
L 54.390625 0 
L 45.40625 0 
L 45.40625 8.203125 
Q 42.578125 3.328125 38.25 0.953125 
Q 33.9375 -1.421875 27.875 -1.421875 
Q 17.96875 -1.421875 11.734375 6.484375 
Q 5.515625 14.40625 5.515625 27.296875 
Q 5.515625 40.1875 11.734375 48.09375 
Q 17.96875 56 27.875 56 
Q 33.9375 56 38.25 53.625 
Q 42.578125 51.265625 45.40625 46.390625 
z
M 14.796875 27.296875 
Q 14.796875 17.390625 18.875 11.75 
Q 22.953125 6.109375 30.078125 6.109375 
Q 37.203125 6.109375 41.296875 11.75 
Q 45.40625 17.390625 45.40625 27.296875 
Q 45.40625 37.203125 41.296875 42.84375 
Q 37.203125 48.484375 30.078125 48.484375 
Q 22.953125 48.484375 18.875 42.84375 
Q 14.796875 37.203125 14.796875 27.296875 
z
" id="DejaVuSans-100"/>
      <path d="M 9.421875 75.984375 
L 18.40625 75.984375 
L 18.40625 0 
L 9.421875 0 
z
" id="DejaVuSans-108"/>
     </defs>
     <g transform="translate(70.042969 702.411094)rotate(-90)scale(0.25 -0.25)">
      <use xlink:href="#DejaVuSans-69"/>
      <use x="63.183594" xlink:href="#DejaVuSans-102"/>
      <use x="98.388672" xlink:href="#DejaVuSans-102"/>
      <use x="133.59375" xlink:href="#DejaVuSans-101"/>
      <use x="195.117188" xlink:href="#DejaVuSans-99"/>
      <use x="250.097656" xlink:href="#DejaVuSans-116"/>
      <use x="289.306641" xlink:href="#DejaVuSans-105"/>
      <use x="317.089844" xlink:href="#DejaVuSans-118"/>
      <use x="376.269531" xlink:href="#DejaVuSans-101"/>
      <use x="437.792969" xlink:href="#DejaVuSans-110"/>
      <use x="501.171875" xlink:href="#DejaVuSans-101"/>
      <use x="562.695312" xlink:href="#DejaVuSans-115"/>
      <use x="614.794922" xlink:href="#DejaVuSans-115"/>
      <use x="666.894531" xlink:href="#DejaVuSans-32"/>
      <use x="698.681641" xlink:href="#DejaVuSans-45"/>
      <use x="734.765625" xlink:href="#DejaVuSans-32"/>
      <use x="766.552734" xlink:href="#DejaVuSans-77"/>
      <use x="852.832031" xlink:href="#DejaVuSans-105"/>
      <use x="880.615234" xlink:href="#DejaVuSans-115"/>
      <use x="932.714844" xlink:href="#DejaVuSans-115"/>
      <use x="984.814453" xlink:href="#DejaVuSans-105"/>
      <use x="1012.597656" xlink:href="#DejaVuSans-110"/>
      <use x="1075.976562" xlink:href="#DejaVuSans-103"/>
      <use x="1139.453125" xlink:href="#DejaVuSans-32"/>
      <use x="1171.240234" xlink:href="#DejaVuSans-116"/>
      <use x="1210.449219" xlink:href="#DejaVuSans-111"/>
      <use x="1271.630859" xlink:href="#DejaVuSans-32"/>
      <use x="1303.417969" xlink:href="#DejaVuSans-73"/>
      <use x="1332.910156" xlink:href="#DejaVuSans-100"/>
      <use x="1396.386719" xlink:href="#DejaVuSans-101"/>
      <use x="1457.910156" xlink:href="#DejaVuSans-97"/>
      <use x="1519.189453" xlink:href="#DejaVuSans-108"/>
     </g>
    </g>
   </g>
   <g id="line2d_17">
    <path clip-path="url(#p9e0ed6dd3a)" d="M 161.509091 128.644752 
L 240.418182 449.300198 
L 319.327273 512.973861 
L 398.236364 607.29505 
L 477.145455 676.915248 
L 556.054545 721.712475 
L 634.963636 780.26297 
L 713.872727 817.863366 
L 792.781818 836.099406 
L 871.690909 839.270891 
" style="fill:none;stroke:#539caf;stroke-dasharray:12.8,3.2,2,3.2;stroke-dashoffset:0;stroke-width:2;"/>
    <defs>
     <path d="M -6 6 
L 6 -6 
M -6 -6 
L 6 6 
" id="me865e884e1" style="stroke:#539caf;"/>
    </defs>
    <g clip-path="url(#p9e0ed6dd3a)">
     <use style="fill:#539caf;stroke:#539caf;" x="161.509091" xlink:href="#me865e884e1" y="128.644752"/>
     <use style="fill:#539caf;stroke:#539caf;" x="240.418182" xlink:href="#me865e884e1" y="449.300198"/>
     <use style="fill:#539caf;stroke:#539caf;" x="319.327273" xlink:href="#me865e884e1" y="512.973861"/>
     <use style="fill:#539caf;stroke:#539caf;" x="398.236364" xlink:href="#me865e884e1" y="607.29505"/>
     <use style="fill:#539caf;stroke:#539caf;" x="477.145455" xlink:href="#me865e884e1" y="676.915248"/>
     <use style="fill:#539caf;stroke:#539caf;" x="556.054545" xlink:href="#me865e884e1" y="721.712475"/>
     <use style="fill:#539caf;stroke:#539caf;" x="634.963636" xlink:href="#me865e884e1" y="780.26297"/>
     <use style="fill:#539caf;stroke:#539caf;" x="713.872727" xlink:href="#me865e884e1" y="817.863366"/>
     <use style="fill:#539caf;stroke:#539caf;" x="792.781818" xlink:href="#me865e884e1" y="836.099406"/>
     <use style="fill:#539caf;stroke:#539caf;" x="871.690909" xlink:href="#me865e884e1" y="839.270891"/>
    </g>
   </g>
   <g id="line2d_18">
    <path clip-path="url(#p9e0ed6dd3a)" d="M 161.509091 128.644752 
L 240.418182 287.46297 
L 319.327273 302.832475 
L 398.236364 331.009901 
L 477.145455 353.698218 
L 556.054545 370.531485 
L 634.963636 408.863762 
L 713.872727 452.685149 
L 792.781818 456.98495 
L 871.690909 504.618218 
" style="fill:none;stroke:#b65332;stroke-linecap:square;stroke-width:2;"/>
    <defs>
     <path d="M -6 -0 
L 6 6 
L 6 -6 
z
" id="m2238e95d9a" style="stroke:#b65332;stroke-linejoin:miter;"/>
    </defs>
    <g clip-path="url(#p9e0ed6dd3a)">
     <use style="fill:#b65332;stroke:#b65332;stroke-linejoin:miter;" x="161.509091" xlink:href="#m2238e95d9a" y="128.644752"/>
     <use style="fill:#b65332;stroke:#b65332;stroke-linejoin:miter;" x="240.418182" xlink:href="#m2238e95d9a" y="287.46297"/>
     <use style="fill:#b65332;stroke:#b65332;stroke-linejoin:miter;" x="319.327273" xlink:href="#m2238e95d9a" y="302.832475"/>
     <use style="fill:#b65332;stroke:#b65332;stroke-linejoin:miter;" x="398.236364" xlink:href="#m2238e95d9a" y="331.009901"/>
     <use style="fill:#b65332;stroke:#b65332;stroke-linejoin:miter;" x="477.145455" xlink:href="#m2238e95d9a" y="353.698218"/>
     <use style="fill:#b65332;stroke:#b65332;stroke-linejoin:miter;" x="556.054545" xlink:href="#m2238e95d9a" y="370.531485"/>
     <use style="fill:#b65332;stroke:#b65332;stroke-linejoin:miter;" x="634.963636" xlink:href="#m2238e95d9a" y="408.863762"/>
     <use style="fill:#b65332;stroke:#b65332;stroke-linejoin:miter;" x="713.872727" xlink:href="#m2238e95d9a" y="452.685149"/>
     <use style="fill:#b65332;stroke:#b65332;stroke-linejoin:miter;" x="792.781818" xlink:href="#m2238e95d9a" y="456.98495"/>
     <use style="fill:#b65332;stroke:#b65332;stroke-linejoin:miter;" x="871.690909" xlink:href="#m2238e95d9a" y="504.618218"/>
    </g>
   </g>
   <g id="line2d_19">
    <path clip-path="url(#p9e0ed6dd3a)" d="M 161.509091 128.644752 
L 240.418182 131.206337 
L 319.327273 136.329505 
L 398.236364 151.69901 
L 477.145455 169.630099 
L 556.054545 184.999604 
L 634.963636 197.807525 
L 713.872727 228.546535 
L 792.781818 294.415842 
L 871.690909 371.903762 
" style="fill:none;stroke:#5be19a;stroke-linecap:square;stroke-width:2;"/>
    <defs>
     <path d="M 0 6 
C 1.591219 6 3.117479 5.367802 4.242641 4.242641 
C 5.367802 3.117479 6 1.591219 6 0 
C 6 -1.591219 5.367802 -3.117479 4.242641 -4.242641 
C 3.117479 -5.367802 1.591219 -6 0 -6 
C -1.591219 -6 -3.117479 -5.367802 -4.242641 -4.242641 
C -5.367802 -3.117479 -6 -1.591219 -6 0 
C -6 1.591219 -5.367802 3.117479 -4.242641 4.242641 
C -3.117479 5.367802 -1.591219 6 0 6 
z
" id="m3343d9c9c9" style="stroke:#5be19a;"/>
    </defs>
    <g clip-path="url(#p9e0ed6dd3a)">
     <use style="fill:#5be19a;stroke:#5be19a;" x="161.509091" xlink:href="#m3343d9c9c9" y="128.644752"/>
     <use style="fill:#5be19a;stroke:#5be19a;" x="240.418182" xlink:href="#m3343d9c9c9" y="131.206337"/>
     <use style="fill:#5be19a;stroke:#5be19a;" x="319.327273" xlink:href="#m3343d9c9c9" y="136.329505"/>
     <use style="fill:#5be19a;stroke:#5be19a;" x="398.236364" xlink:href="#m3343d9c9c9" y="151.69901"/>
     <use style="fill:#5be19a;stroke:#5be19a;" x="477.145455" xlink:href="#m3343d9c9c9" y="169.630099"/>
     <use style="fill:#5be19a;stroke:#5be19a;" x="556.054545" xlink:href="#m3343d9c9c9" y="184.999604"/>
     <use style="fill:#5be19a;stroke:#5be19a;" x="634.963636" xlink:href="#m3343d9c9c9" y="197.807525"/>
     <use style="fill:#5be19a;stroke:#5be19a;" x="713.872727" xlink:href="#m3343d9c9c9" y="228.546535"/>
     <use style="fill:#5be19a;stroke:#5be19a;" x="792.781818" xlink:href="#m3343d9c9c9" y="294.415842"/>
     <use style="fill:#5be19a;stroke:#5be19a;" x="871.690909" xlink:href="#m3343d9c9c9" y="371.903762"/>
    </g>
   </g>
   <g id="line2d_20">
    <path clip-path="url(#p9e0ed6dd3a)" d="M 161.509091 128.644752 
L 240.418182 780.933861 
L 319.327273 819.113663 
L 398.236364 846.742178 
L 477.145455 852.627723 
L 556.054545 874.479736 
L 634.963636 879.094037 
L 713.872727 862.291443 
L 792.781818 882.270237 
L 871.690909 889.357624 
" style="fill:none;stroke:#ece554;stroke-dasharray:7.4,3.2;stroke-dashoffset:0;stroke-width:2;"/>
    <defs>
     <path d="M -6 6 
L 6 6 
L 6 -6 
L -6 -6 
z
" id="m2c60b94288" style="stroke:#ece554;stroke-linejoin:miter;"/>
    </defs>
    <g clip-path="url(#p9e0ed6dd3a)">
     <use style="fill:#ece554;stroke:#ece554;stroke-linejoin:miter;" x="161.509091" xlink:href="#m2c60b94288" y="128.644752"/>
     <use style="fill:#ece554;stroke:#ece554;stroke-linejoin:miter;" x="240.418182" xlink:href="#m2c60b94288" y="780.933861"/>
     <use style="fill:#ece554;stroke:#ece554;stroke-linejoin:miter;" x="319.327273" xlink:href="#m2c60b94288" y="819.113663"/>
     <use style="fill:#ece554;stroke:#ece554;stroke-linejoin:miter;" x="398.236364" xlink:href="#m2c60b94288" y="846.742178"/>
     <use style="fill:#ece554;stroke:#ece554;stroke-linejoin:miter;" x="477.145455" xlink:href="#m2c60b94288" y="852.627723"/>
     <use style="fill:#ece554;stroke:#ece554;stroke-linejoin:miter;" x="556.054545" xlink:href="#m2c60b94288" y="874.479736"/>
     <use style="fill:#ece554;stroke:#ece554;stroke-linejoin:miter;" x="634.963636" xlink:href="#m2c60b94288" y="879.094037"/>
     <use style="fill:#ece554;stroke:#ece554;stroke-linejoin:miter;" x="713.872727" xlink:href="#m2c60b94288" y="862.291443"/>
     <use style="fill:#ece554;stroke:#ece554;stroke-linejoin:miter;" x="792.781818" xlink:href="#m2c60b94288" y="882.270237"/>
     <use style="fill:#ece554;stroke:#ece554;stroke-linejoin:miter;" x="871.690909" xlink:href="#m2c60b94288" y="889.357624"/>
    </g>
   </g>
   <g id="line2d_21">
    <path clip-path="url(#p9e0ed6dd3a)" d="M 161.509091 128.644752 
L 240.418182 648.127921 
L 319.327273 699.359604 
L 398.236364 717.290693 
L 477.145455 754.708119 
L 556.054545 778.497338 
L 634.963636 795.740902 
L 713.872727 798.893841 
L 792.781818 881.595248 
L 871.690909 897.12 
" style="fill:none;stroke:#0d0e0f;stroke-dasharray:12.8,3.2,2,3.2;stroke-dashoffset:0;stroke-width:2;"/>
    <defs>
     <path d="M -6 6 
L 6 -6 
M -6 -6 
L 6 6 
" id="ma82b3f6ddb" style="stroke:#0d0e0f;"/>
    </defs>
    <g clip-path="url(#p9e0ed6dd3a)">
     <use style="fill:#0d0e0f;stroke:#0d0e0f;" x="161.509091" xlink:href="#ma82b3f6ddb" y="128.644752"/>
     <use style="fill:#0d0e0f;stroke:#0d0e0f;" x="240.418182" xlink:href="#ma82b3f6ddb" y="648.127921"/>
     <use style="fill:#0d0e0f;stroke:#0d0e0f;" x="319.327273" xlink:href="#ma82b3f6ddb" y="699.359604"/>
     <use style="fill:#0d0e0f;stroke:#0d0e0f;" x="398.236364" xlink:href="#ma82b3f6ddb" y="717.290693"/>
     <use style="fill:#0d0e0f;stroke:#0d0e0f;" x="477.145455" xlink:href="#ma82b3f6ddb" y="754.708119"/>
     <use style="fill:#0d0e0f;stroke:#0d0e0f;" x="556.054545" xlink:href="#ma82b3f6ddb" y="778.497338"/>
     <use style="fill:#0d0e0f;stroke:#0d0e0f;" x="634.963636" xlink:href="#ma82b3f6ddb" y="795.740902"/>
     <use style="fill:#0d0e0f;stroke:#0d0e0f;" x="713.872727" xlink:href="#ma82b3f6ddb" y="798.893841"/>
     <use style="fill:#0d0e0f;stroke:#0d0e0f;" x="792.781818" xlink:href="#ma82b3f6ddb" y="881.595248"/>
     <use style="fill:#0d0e0f;stroke:#0d0e0f;" x="871.690909" xlink:href="#ma82b3f6ddb" y="897.12"/>
    </g>
   </g>
   <g id="patch_3">
    <path d="M 126 897.12 
L 126 120.96 
" style="fill:none;stroke:#000000;stroke-linecap:square;stroke-linejoin:miter;stroke-width:0.8;"/>
   </g>
   <g id="patch_4">
    <path d="M 126 897.12 
L 907.2 897.12 
" style="fill:none;stroke:#000000;stroke-linecap:square;stroke-linejoin:miter;stroke-width:0.8;"/>
   </g>
   <g id="text_19">
    <!-- Impact missing on Effectiveness (RBO), 95% CI, k = 5 -->
    <defs>
     <path d="M 31 75.875 
Q 24.46875 64.65625 21.28125 53.65625 
Q 18.109375 42.671875 18.109375 31.390625 
Q 18.109375 20.125 21.3125 9.0625 
Q 24.515625 -2 31 -13.1875 
L 23.1875 -13.1875 
Q 15.875 -1.703125 12.234375 9.375 
Q 8.59375 20.453125 8.59375 31.390625 
Q 8.59375 42.28125 12.203125 53.3125 
Q 15.828125 64.359375 23.1875 75.875 
z
" id="DejaVuSans-40"/>
     <path d="M 44.390625 34.1875 
Q 47.5625 33.109375 50.5625 29.59375 
Q 53.5625 26.078125 56.59375 19.921875 
L 66.609375 0 
L 56 0 
L 46.6875 18.703125 
Q 43.0625 26.03125 39.671875 28.421875 
Q 36.28125 30.8125 30.421875 30.8125 
L 19.671875 30.8125 
L 19.671875 0 
L 9.8125 0 
L 9.8125 72.90625 
L 32.078125 72.90625 
Q 44.578125 72.90625 50.734375 67.671875 
Q 56.890625 62.453125 56.890625 51.90625 
Q 56.890625 45.015625 53.6875 40.46875 
Q 50.484375 35.9375 44.390625 34.1875 
z
M 19.671875 64.796875 
L 19.671875 38.921875 
L 32.078125 38.921875 
Q 39.203125 38.921875 42.84375 42.21875 
Q 46.484375 45.515625 46.484375 51.90625 
Q 46.484375 58.296875 42.84375 61.546875 
Q 39.203125 64.796875 32.078125 64.796875 
z
" id="DejaVuSans-82"/>
     <path d="M 19.671875 34.8125 
L 19.671875 8.109375 
L 35.5 8.109375 
Q 43.453125 8.109375 47.28125 11.40625 
Q 51.125 14.703125 51.125 21.484375 
Q 51.125 28.328125 47.28125 31.5625 
Q 43.453125 34.8125 35.5 34.8125 
z
M 19.671875 64.796875 
L 19.671875 42.828125 
L 34.28125 42.828125 
Q 41.5 42.828125 45.03125 45.53125 
Q 48.578125 48.25 48.578125 53.8125 
Q 48.578125 59.328125 45.03125 62.0625 
Q 41.5 64.796875 34.28125 64.796875 
z
M 9.8125 72.90625 
L 35.015625 72.90625 
Q 46.296875 72.90625 52.390625 68.21875 
Q 58.5 63.53125 58.5 54.890625 
Q 58.5 48.1875 55.375 44.234375 
Q 52.25 40.28125 46.1875 39.3125 
Q 53.46875 37.75 57.5 32.78125 
Q 61.53125 27.828125 61.53125 20.40625 
Q 61.53125 10.640625 54.890625 5.3125 
Q 48.25 0 35.984375 0 
L 9.8125 0 
z
" id="DejaVuSans-66"/>
     <path d="M 39.40625 66.21875 
Q 28.65625 66.21875 22.328125 58.203125 
Q 16.015625 50.203125 16.015625 36.375 
Q 16.015625 22.609375 22.328125 14.59375 
Q 28.65625 6.59375 39.40625 6.59375 
Q 50.140625 6.59375 56.421875 14.59375 
Q 62.703125 22.609375 62.703125 36.375 
Q 62.703125 50.203125 56.421875 58.203125 
Q 50.140625 66.21875 39.40625 66.21875 
z
M 39.40625 74.21875 
Q 54.734375 74.21875 63.90625 63.9375 
Q 73.09375 53.65625 73.09375 36.375 
Q 73.09375 19.140625 63.90625 8.859375 
Q 54.734375 -1.421875 39.40625 -1.421875 
Q 24.03125 -1.421875 14.8125 8.828125 
Q 5.609375 19.09375 5.609375 36.375 
Q 5.609375 53.65625 14.8125 63.9375 
Q 24.03125 74.21875 39.40625 74.21875 
z
" id="DejaVuSans-79"/>
     <path d="M 8.015625 75.875 
L 15.828125 75.875 
Q 23.140625 64.359375 26.78125 53.3125 
Q 30.421875 42.28125 30.421875 31.390625 
Q 30.421875 20.453125 26.78125 9.375 
Q 23.140625 -1.703125 15.828125 -13.1875 
L 8.015625 -13.1875 
Q 14.5 -2 17.703125 9.0625 
Q 20.90625 20.125 20.90625 31.390625 
Q 20.90625 42.671875 17.703125 53.65625 
Q 14.5 64.65625 8.015625 75.875 
z
" id="DejaVuSans-41"/>
     <path d="M 11.71875 12.40625 
L 22.015625 12.40625 
L 22.015625 4 
L 14.015625 -11.625 
L 7.71875 -11.625 
L 11.71875 4 
z
" id="DejaVuSans-44"/>
     <path d="M 72.703125 32.078125 
Q 68.453125 32.078125 66.03125 28.46875 
Q 63.625 24.859375 63.625 18.40625 
Q 63.625 12.0625 66.03125 8.421875 
Q 68.453125 4.78125 72.703125 4.78125 
Q 76.859375 4.78125 79.265625 8.421875 
Q 81.6875 12.0625 81.6875 18.40625 
Q 81.6875 24.8125 79.265625 28.4375 
Q 76.859375 32.078125 72.703125 32.078125 
z
M 72.703125 38.28125 
Q 80.421875 38.28125 84.953125 32.90625 
Q 89.5 27.546875 89.5 18.40625 
Q 89.5 9.28125 84.9375 3.921875 
Q 80.375 -1.421875 72.703125 -1.421875 
Q 64.890625 -1.421875 60.34375 3.921875 
Q 55.8125 9.28125 55.8125 18.40625 
Q 55.8125 27.59375 60.375 32.9375 
Q 64.9375 38.28125 72.703125 38.28125 
z
M 22.3125 68.015625 
Q 18.109375 68.015625 15.6875 64.375 
Q 13.28125 60.75 13.28125 54.390625 
Q 13.28125 47.953125 15.671875 44.328125 
Q 18.0625 40.71875 22.3125 40.71875 
Q 26.5625 40.71875 28.96875 44.328125 
Q 31.390625 47.953125 31.390625 54.390625 
Q 31.390625 60.6875 28.953125 64.34375 
Q 26.515625 68.015625 22.3125 68.015625 
z
M 66.40625 74.21875 
L 74.21875 74.21875 
L 28.609375 -1.421875 
L 20.796875 -1.421875 
z
M 22.3125 74.21875 
Q 30.03125 74.21875 34.609375 68.875 
Q 39.203125 63.53125 39.203125 54.390625 
Q 39.203125 45.171875 34.640625 39.84375 
Q 30.078125 34.515625 22.3125 34.515625 
Q 14.546875 34.515625 10.03125 39.859375 
Q 5.515625 45.21875 5.515625 54.390625 
Q 5.515625 63.484375 10.046875 68.84375 
Q 14.59375 74.21875 22.3125 74.21875 
z
" id="DejaVuSans-37"/>
     <path d="M 64.40625 67.28125 
L 64.40625 56.890625 
Q 59.421875 61.53125 53.78125 63.8125 
Q 48.140625 66.109375 41.796875 66.109375 
Q 29.296875 66.109375 22.65625 58.46875 
Q 16.015625 50.828125 16.015625 36.375 
Q 16.015625 21.96875 22.65625 14.328125 
Q 29.296875 6.6875 41.796875 6.6875 
Q 48.140625 6.6875 53.78125 8.984375 
Q 59.421875 11.28125 64.40625 15.921875 
L 64.40625 5.609375 
Q 59.234375 2.09375 53.4375 0.328125 
Q 47.65625 -1.421875 41.21875 -1.421875 
Q 24.65625 -1.421875 15.125 8.703125 
Q 5.609375 18.84375 5.609375 36.375 
Q 5.609375 53.953125 15.125 64.078125 
Q 24.65625 74.21875 41.21875 74.21875 
Q 47.75 74.21875 53.53125 72.484375 
Q 59.328125 70.75 64.40625 67.28125 
z
" id="DejaVuSans-67"/>
     <path d="M 9.078125 75.984375 
L 18.109375 75.984375 
L 18.109375 31.109375 
L 44.921875 54.6875 
L 56.390625 54.6875 
L 27.390625 29.109375 
L 57.625 0 
L 45.90625 0 
L 18.109375 26.703125 
L 18.109375 0 
L 9.078125 0 
z
" id="DejaVuSans-107"/>
     <path d="M 10.59375 45.40625 
L 73.1875 45.40625 
L 73.1875 37.203125 
L 10.59375 37.203125 
z
M 10.59375 25.484375 
L 73.1875 25.484375 
L 73.1875 17.1875 
L 10.59375 17.1875 
z
" id="DejaVuSans-61"/>
    </defs>
    <g transform="translate(112.696875 114.720938)scale(0.3 -0.3)">
     <use xlink:href="#DejaVuSans-73"/>
     <use x="29.492188" xlink:href="#DejaVuSans-109"/>
     <use x="126.904297" xlink:href="#DejaVuSans-112"/>
     <use x="190.380859" xlink:href="#DejaVuSans-97"/>
     <use x="251.660156" xlink:href="#DejaVuSans-99"/>
     <use x="306.640625" xlink:href="#DejaVuSans-116"/>
     <use x="345.849609" xlink:href="#DejaVuSans-32"/>
     <use x="377.636719" xlink:href="#DejaVuSans-109"/>
     <use x="475.048828" xlink:href="#DejaVuSans-105"/>
     <use x="502.832031" xlink:href="#DejaVuSans-115"/>
     <use x="554.931641" xlink:href="#DejaVuSans-115"/>
     <use x="607.03125" xlink:href="#DejaVuSans-105"/>
     <use x="634.814453" xlink:href="#DejaVuSans-110"/>
     <use x="698.193359" xlink:href="#DejaVuSans-103"/>
     <use x="761.669922" xlink:href="#DejaVuSans-32"/>
     <use x="793.457031" xlink:href="#DejaVuSans-111"/>
     <use x="854.638672" xlink:href="#DejaVuSans-110"/>
     <use x="918.017578" xlink:href="#DejaVuSans-32"/>
     <use x="949.804688" xlink:href="#DejaVuSans-69"/>
     <use x="1012.988281" xlink:href="#DejaVuSans-102"/>
     <use x="1048.193359" xlink:href="#DejaVuSans-102"/>
     <use x="1083.398438" xlink:href="#DejaVuSans-101"/>
     <use x="1144.921875" xlink:href="#DejaVuSans-99"/>
     <use x="1199.902344" xlink:href="#DejaVuSans-116"/>
     <use x="1239.111328" xlink:href="#DejaVuSans-105"/>
     <use x="1266.894531" xlink:href="#DejaVuSans-118"/>
     <use x="1326.074219" xlink:href="#DejaVuSans-101"/>
     <use x="1387.597656" xlink:href="#DejaVuSans-110"/>
     <use x="1450.976562" xlink:href="#DejaVuSans-101"/>
     <use x="1512.5" xlink:href="#DejaVuSans-115"/>
     <use x="1564.599609" xlink:href="#DejaVuSans-115"/>
     <use x="1616.699219" xlink:href="#DejaVuSans-32"/>
     <use x="1648.486328" xlink:href="#DejaVuSans-40"/>
     <use x="1687.5" xlink:href="#DejaVuSans-82"/>
     <use x="1756.982422" xlink:href="#DejaVuSans-66"/>
     <use x="1825.570312" xlink:href="#DejaVuSans-79"/>
     <use x="1904.28125" xlink:href="#DejaVuSans-41"/>
     <use x="1943.294922" xlink:href="#DejaVuSans-44"/>
     <use x="1975.082031" xlink:href="#DejaVuSans-32"/>
     <use x="2006.869141" xlink:href="#DejaVuSans-57"/>
     <use x="2070.492188" xlink:href="#DejaVuSans-53"/>
     <use x="2134.115234" xlink:href="#DejaVuSans-37"/>
     <use x="2229.134766" xlink:href="#DejaVuSans-32"/>
     <use x="2260.921875" xlink:href="#DejaVuSans-67"/>
     <use x="2330.746094" xlink:href="#DejaVuSans-73"/>
     <use x="2360.238281" xlink:href="#DejaVuSans-44"/>
     <use x="2392.025391" xlink:href="#DejaVuSans-32"/>
     <use x="2423.8125" xlink:href="#DejaVuSans-107"/>
     <use x="2481.722656" xlink:href="#DejaVuSans-32"/>
     <use x="2513.509766" xlink:href="#DejaVuSans-61"/>
     <use x="2597.298828" xlink:href="#DejaVuSans-32"/>
     <use x="2629.085938" xlink:href="#DejaVuSans-53"/>
    </g>
   </g>
   <g id="legend_1">
    <g id="patch_5">
     <path d="M 336.775781 604.528281 
L 696.424219 604.528281 
Q 701.424219 604.528281 701.424219 599.528281 
L 701.424219 418.551719 
Q 701.424219 413.551719 696.424219 413.551719 
L 336.775781 413.551719 
Q 331.775781 413.551719 331.775781 418.551719 
L 331.775781 599.528281 
Q 331.775781 604.528281 336.775781 604.528281 
z
" style="fill:#ffffff;opacity:0.8;stroke:#cccccc;stroke-linejoin:miter;"/>
    </g>
    <g id="line2d_22">
     <path d="M 341.775781 433.797812 
L 391.775781 433.797812 
" style="fill:none;stroke:#539caf;stroke-dasharray:12.8,3.2,2,3.2;stroke-dashoffset:0;stroke-width:2;"/>
    </g>
    <g id="line2d_23">
     <g>
      <use style="fill:#539caf;stroke:#539caf;" x="366.775781" xlink:href="#me865e884e1" y="433.797812"/>
     </g>
    </g>
    <g id="text_20">
     <!-- + Correlation -->
     <defs>
      <path d="M 46 62.703125 
L 46 35.5 
L 73.1875 35.5 
L 73.1875 27.203125 
L 46 27.203125 
L 46 0 
L 37.796875 0 
L 37.796875 27.203125 
L 10.59375 27.203125 
L 10.59375 35.5 
L 37.796875 35.5 
L 37.796875 62.703125 
z
" id="DejaVuSans-43"/>
     </defs>
     <g transform="translate(411.775781 442.547812)scale(0.25 -0.25)">
      <use xlink:href="#DejaVuSans-43"/>
      <use x="83.789062" xlink:href="#DejaVuSans-32"/>
      <use x="115.576172" xlink:href="#DejaVuSans-67"/>
      <use x="185.400391" xlink:href="#DejaVuSans-111"/>
      <use x="246.582031" xlink:href="#DejaVuSans-114"/>
      <use x="287.679688" xlink:href="#DejaVuSans-114"/>
      <use x="328.761719" xlink:href="#DejaVuSans-101"/>
      <use x="390.285156" xlink:href="#DejaVuSans-108"/>
      <use x="418.068359" xlink:href="#DejaVuSans-97"/>
      <use x="479.347656" xlink:href="#DejaVuSans-116"/>
      <use x="518.556641" xlink:href="#DejaVuSans-105"/>
      <use x="546.339844" xlink:href="#DejaVuSans-111"/>
      <use x="607.521484" xlink:href="#DejaVuSans-110"/>
     </g>
    </g>
    <g id="line2d_24">
     <path d="M 341.775781 470.493125 
L 391.775781 470.493125 
" style="fill:none;stroke:#b65332;stroke-linecap:square;stroke-width:2;"/>
    </g>
    <g id="line2d_25">
     <g>
      <use style="fill:#b65332;stroke:#b65332;stroke-linejoin:miter;" x="366.775781" xlink:href="#m2238e95d9a" y="470.493125"/>
     </g>
    </g>
    <g id="text_21">
     <!-- + Kurtosis -->
     <defs>
      <path d="M 9.8125 72.90625 
L 19.671875 72.90625 
L 19.671875 42.09375 
L 52.390625 72.90625 
L 65.09375 72.90625 
L 28.90625 38.921875 
L 67.671875 0 
L 54.6875 0 
L 19.671875 35.109375 
L 19.671875 0 
L 9.8125 0 
z
" id="DejaVuSans-75"/>
      <path d="M 8.5 21.578125 
L 8.5 54.6875 
L 17.484375 54.6875 
L 17.484375 21.921875 
Q 17.484375 14.15625 20.5 10.265625 
Q 23.53125 6.390625 29.59375 6.390625 
Q 36.859375 6.390625 41.078125 11.03125 
Q 45.3125 15.671875 45.3125 23.6875 
L 45.3125 54.6875 
L 54.296875 54.6875 
L 54.296875 0 
L 45.3125 0 
L 45.3125 8.40625 
Q 42.046875 3.421875 37.71875 1 
Q 33.40625 -1.421875 27.6875 -1.421875 
Q 18.265625 -1.421875 13.375 4.4375 
Q 8.5 10.296875 8.5 21.578125 
z
M 31.109375 56 
z
" id="DejaVuSans-117"/>
     </defs>
     <g transform="translate(411.775781 479.243125)scale(0.25 -0.25)">
      <use xlink:href="#DejaVuSans-43"/>
      <use x="83.789062" xlink:href="#DejaVuSans-32"/>
      <use x="115.576172" xlink:href="#DejaVuSans-75"/>
      <use x="181.074219" xlink:href="#DejaVuSans-117"/>
      <use x="244.453125" xlink:href="#DejaVuSans-114"/>
      <use x="285.566406" xlink:href="#DejaVuSans-116"/>
      <use x="324.775391" xlink:href="#DejaVuSans-111"/>
      <use x="385.957031" xlink:href="#DejaVuSans-115"/>
      <use x="438.056641" xlink:href="#DejaVuSans-105"/>
      <use x="465.839844" xlink:href="#DejaVuSans-115"/>
     </g>
    </g>
    <g id="line2d_26">
     <path d="M 341.775781 507.188437 
L 391.775781 507.188437 
" style="fill:none;stroke:#5be19a;stroke-linecap:square;stroke-width:2;"/>
    </g>
    <g id="line2d_27">
     <g>
      <use style="fill:#5be19a;stroke:#5be19a;" x="366.775781" xlink:href="#m3343d9c9c9" y="507.188437"/>
     </g>
    </g>
    <g id="text_22">
     <!-- + Skewness -->
     <defs>
      <path d="M 53.515625 70.515625 
L 53.515625 60.890625 
Q 47.90625 63.578125 42.921875 64.890625 
Q 37.9375 66.21875 33.296875 66.21875 
Q 25.25 66.21875 20.875 63.09375 
Q 16.5 59.96875 16.5 54.203125 
Q 16.5 49.359375 19.40625 46.890625 
Q 22.3125 44.4375 30.421875 42.921875 
L 36.375 41.703125 
Q 47.40625 39.59375 52.65625 34.296875 
Q 57.90625 29 57.90625 20.125 
Q 57.90625 9.515625 50.796875 4.046875 
Q 43.703125 -1.421875 29.984375 -1.421875 
Q 24.8125 -1.421875 18.96875 -0.25 
Q 13.140625 0.921875 6.890625 3.21875 
L 6.890625 13.375 
Q 12.890625 10.015625 18.65625 8.296875 
Q 24.421875 6.59375 29.984375 6.59375 
Q 38.421875 6.59375 43.015625 9.90625 
Q 47.609375 13.234375 47.609375 19.390625 
Q 47.609375 24.75 44.3125 27.78125 
Q 41.015625 30.8125 33.5 32.328125 
L 27.484375 33.5 
Q 16.453125 35.6875 11.515625 40.375 
Q 6.59375 45.0625 6.59375 53.421875 
Q 6.59375 63.09375 13.40625 68.65625 
Q 20.21875 74.21875 32.171875 74.21875 
Q 37.3125 74.21875 42.625 73.28125 
Q 47.953125 72.359375 53.515625 70.515625 
z
" id="DejaVuSans-83"/>
      <path d="M 4.203125 54.6875 
L 13.1875 54.6875 
L 24.421875 12.015625 
L 35.59375 54.6875 
L 46.1875 54.6875 
L 57.421875 12.015625 
L 68.609375 54.6875 
L 77.59375 54.6875 
L 63.28125 0 
L 52.6875 0 
L 40.921875 44.828125 
L 29.109375 0 
L 18.5 0 
z
" id="DejaVuSans-119"/>
     </defs>
     <g transform="translate(411.775781 515.938437)scale(0.25 -0.25)">
      <use xlink:href="#DejaVuSans-43"/>
      <use x="83.789062" xlink:href="#DejaVuSans-32"/>
      <use x="115.576172" xlink:href="#DejaVuSans-83"/>
      <use x="179.052734" xlink:href="#DejaVuSans-107"/>
      <use x="236.916016" xlink:href="#DejaVuSans-101"/>
      <use x="298.439453" xlink:href="#DejaVuSans-119"/>
      <use x="380.226562" xlink:href="#DejaVuSans-110"/>
      <use x="443.605469" xlink:href="#DejaVuSans-101"/>
      <use x="505.128906" xlink:href="#DejaVuSans-115"/>
      <use x="557.228516" xlink:href="#DejaVuSans-115"/>
     </g>
    </g>
    <g id="line2d_28">
     <path d="M 341.775781 543.88375 
L 391.775781 543.88375 
" style="fill:none;stroke:#ece554;stroke-dasharray:7.4,3.2;stroke-dashoffset:0;stroke-width:2;"/>
    </g>
    <g id="line2d_29">
     <g>
      <use style="fill:#ece554;stroke:#ece554;stroke-linejoin:miter;" x="366.775781" xlink:href="#m2c60b94288" y="543.88375"/>
     </g>
    </g>
    <g id="text_23">
     <!-- Similarity to reference -->
     <defs>
      <path d="M 32.171875 -5.078125 
Q 28.375 -14.84375 24.75 -17.8125 
Q 21.140625 -20.796875 15.09375 -20.796875 
L 7.90625 -20.796875 
L 7.90625 -13.28125 
L 13.1875 -13.28125 
Q 16.890625 -13.28125 18.9375 -11.515625 
Q 21 -9.765625 23.484375 -3.21875 
L 25.09375 0.875 
L 2.984375 54.6875 
L 12.5 54.6875 
L 29.59375 11.921875 
L 46.6875 54.6875 
L 56.203125 54.6875 
z
" id="DejaVuSans-121"/>
     </defs>
     <g transform="translate(411.775781 552.63375)scale(0.25 -0.25)">
      <use xlink:href="#DejaVuSans-83"/>
      <use x="63.476562" xlink:href="#DejaVuSans-105"/>
      <use x="91.259766" xlink:href="#DejaVuSans-109"/>
      <use x="188.671875" xlink:href="#DejaVuSans-105"/>
      <use x="216.455078" xlink:href="#DejaVuSans-108"/>
      <use x="244.238281" xlink:href="#DejaVuSans-97"/>
      <use x="305.517578" xlink:href="#DejaVuSans-114"/>
      <use x="346.630859" xlink:href="#DejaVuSans-105"/>
      <use x="374.414062" xlink:href="#DejaVuSans-116"/>
      <use x="413.623047" xlink:href="#DejaVuSans-121"/>
      <use x="472.802734" xlink:href="#DejaVuSans-32"/>
      <use x="504.589844" xlink:href="#DejaVuSans-116"/>
      <use x="543.798828" xlink:href="#DejaVuSans-111"/>
      <use x="604.980469" xlink:href="#DejaVuSans-32"/>
      <use x="636.767578" xlink:href="#DejaVuSans-114"/>
      <use x="677.849609" xlink:href="#DejaVuSans-101"/>
      <use x="739.373047" xlink:href="#DejaVuSans-102"/>
      <use x="774.578125" xlink:href="#DejaVuSans-101"/>
      <use x="836.101562" xlink:href="#DejaVuSans-114"/>
      <use x="877.183594" xlink:href="#DejaVuSans-101"/>
      <use x="938.707031" xlink:href="#DejaVuSans-110"/>
      <use x="1002.085938" xlink:href="#DejaVuSans-99"/>
      <use x="1057.066406" xlink:href="#DejaVuSans-101"/>
     </g>
    </g>
    <g id="line2d_30">
     <path d="M 341.775781 580.579062 
L 391.775781 580.579062 
" style="fill:none;stroke:#0d0e0f;stroke-dasharray:12.8,3.2,2,3.2;stroke-dashoffset:0;stroke-width:2;"/>
    </g>
    <g id="line2d_31">
     <g>
      <use style="fill:#0d0e0f;stroke:#0d0e0f;" x="366.775781" xlink:href="#ma82b3f6ddb" y="580.579062"/>
     </g>
    </g>
    <g id="text_24">
     <!-- Deviation/outstanding -->
     <defs>
      <path d="M 19.671875 64.796875 
L 19.671875 8.109375 
L 31.59375 8.109375 
Q 46.6875 8.109375 53.6875 14.9375 
Q 60.6875 21.78125 60.6875 36.53125 
Q 60.6875 51.171875 53.6875 57.984375 
Q 46.6875 64.796875 31.59375 64.796875 
z
M 9.8125 72.90625 
L 30.078125 72.90625 
Q 51.265625 72.90625 61.171875 64.09375 
Q 71.09375 55.28125 71.09375 36.53125 
Q 71.09375 17.671875 61.125 8.828125 
Q 51.171875 0 30.078125 0 
L 9.8125 0 
z
" id="DejaVuSans-68"/>
      <path d="M 25.390625 72.90625 
L 33.6875 72.90625 
L 8.296875 -9.28125 
L 0 -9.28125 
z
" id="DejaVuSans-47"/>
     </defs>
     <g transform="translate(411.775781 589.329062)scale(0.25 -0.25)">
      <use xlink:href="#DejaVuSans-68"/>
      <use x="77.001953" xlink:href="#DejaVuSans-101"/>
      <use x="138.525391" xlink:href="#DejaVuSans-118"/>
      <use x="197.705078" xlink:href="#DejaVuSans-105"/>
      <use x="225.488281" xlink:href="#DejaVuSans-97"/>
      <use x="286.767578" xlink:href="#DejaVuSans-116"/>
      <use x="325.976562" xlink:href="#DejaVuSans-105"/>
      <use x="353.759766" xlink:href="#DejaVuSans-111"/>
      <use x="414.941406" xlink:href="#DejaVuSans-110"/>
      <use x="478.320312" xlink:href="#DejaVuSans-47"/>
      <use x="512.011719" xlink:href="#DejaVuSans-111"/>
      <use x="573.193359" xlink:href="#DejaVuSans-117"/>
      <use x="636.572266" xlink:href="#DejaVuSans-116"/>
      <use x="675.78125" xlink:href="#DejaVuSans-115"/>
      <use x="727.880859" xlink:href="#DejaVuSans-116"/>
      <use x="767.089844" xlink:href="#DejaVuSans-97"/>
      <use x="828.369141" xlink:href="#DejaVuSans-110"/>
      <use x="891.748047" xlink:href="#DejaVuSans-100"/>
      <use x="955.224609" xlink:href="#DejaVuSans-105"/>
      <use x="983.007812" xlink:href="#DejaVuSans-110"/>
      <use x="1046.386719" xlink:href="#DejaVuSans-103"/>
     </g>
    </g>
   </g>
  </g>
 </g>
 <defs>
  <clipPath id="p9e0ed6dd3a">
   <rect height="776.16" width="781.2" x="126" y="120.96"/>
  </clipPath>
 </defs>
</svg>
